<svg id="svg" version="1.1" width="400" height="400" xmlns="http://www.w3.org/2000/svg" xmlns:xlink="http://www.w3.org/1999/xlink" style="display: block;"><g id="svgg"><path id="path0" d="M305.542 18.897 C 287.026 36.065,285.933 36.303,222.000 37.094 C 165.517 37.792,164.900 37.847,148.994 43.557 C 114.799 55.834,89.118 83.997,79.848 119.387 C 75.132 137.390,76.930 173.224,82.660 175.423 C 86.657 176.957,88.995 173.815,97.485 155.500 C 115.630 116.356,136.275 108.729,188.500 121.874 C 235.577 133.723,261.846 131.001,287.654 111.601 C 311.736 93.498,321.938 71.628,322.742 36.383 C 323.376 8.593,320.170 5.334,305.542 18.897 M318.500 100.588 C 313.025 108.621,300.857 120.497,292.061 126.393 C 285.693 130.663,285.000 131.413,286.631 132.275 C 293.702 136.014,298.526 143.854,302.524 158.108 C 306.848 173.526,309.948 177.704,315.043 174.977 C 320.670 171.965,322.116 163.381,322.703 129.500 C 323.356 91.803,323.555 93.172,318.500 100.588 M129.500 147.879 C 108.275 155.876,97.503 160.970,103.000 160.411 C 106.025 160.104,114.999 159.292,122.943 158.607 L 137.385 157.361 156.606 163.547 L 175.828 169.732 176.363 166.616 C 176.658 164.902,177.187 161.437,177.538 158.915 L 178.177 154.331 159.339 150.693 C 148.977 148.692,139.150 146.816,137.500 146.525 C 135.754 146.217,132.409 146.783,129.500 147.879 M235.000 150.223 C 223.725 152.447,214.414 154.330,214.309 154.407 C 214.204 154.485,214.654 157.942,215.309 162.090 L 216.500 169.632 236.000 163.477 L 255.500 157.322 274.498 159.080 C 284.946 160.047,293.593 160.740,293.712 160.621 C 294.176 160.158,258.416 146.001,257.000 146.088 C 256.175 146.138,246.275 147.998,235.000 150.223 M100.828 176.986 C 100.520 184.587,100.634 185.126,102.655 185.631 C 107.239 186.776,108.984 190.174,110.599 201.097 C 113.103 218.028,119.205 227.983,130.662 233.828 C 152.343 244.888,182.222 229.449,187.141 204.643 C 189.738 191.547,205.181 191.315,207.795 204.333 C 214.133 235.894,253.263 248.737,274.282 226.155 C 280.769 219.185,284.519 209.845,286.452 195.845 C 287.174 190.607,290.704 186.000,293.994 186.000 C 295.759 186.000,296.285 172.735,294.615 170.334 C 294.552 170.243,279.425 170.047,261.000 169.898 C 223.974 169.599,223.837 169.618,215.634 176.186 C 211.817 179.241,211.588 179.288,197.828 179.782 L 183.888 180.284 180.694 177.250 C 172.633 169.592,172.308 169.535,134.828 169.190 L 101.156 168.880 100.828 176.986 M83.368 193.484 C 82.243 196.416,84.964 249.030,86.627 256.500 C 95.384 295.835,138.258 343.294,184.791 365.163 C 198.791 371.743,204.068 370.794,226.062 357.743 C 252.322 342.161,261.445 333.682,289.974 298.338 C 305.224 279.446,311.418 259.717,312.526 226.500 C 313.706 191.101,313.740 192.584,311.750 192.195 C 310.219 191.896,310.000 192.719,310.000 198.768 C 310.000 232.497,302.173 246.766,266.792 277.536 L 261.084 282.500 259.073 296.620 C 255.380 322.545,251.364 328.952,233.493 337.434 C 211.104 348.060,199.254 341.582,205.414 322.083 C 209.130 310.321,209.553 311.000,198.500 311.000 C 187.292 311.000,187.372 310.863,191.495 322.986 C 199.038 345.163,175.202 349.284,150.744 330.031 C 142.876 323.838,139.531 315.038,136.927 293.689 C 135.432 281.431,137.134 283.919,119.500 268.216 C 93.251 244.841,88.725 235.948,87.113 204.580 C 86.524 193.125,85.111 188.940,83.368 193.484 M165.579 275.517 C 148.256 283.596,147.444 284.110,148.336 286.433 C 149.071 288.348,149.433 288.349,170.290 286.509 C 190.665 284.711,194.000 283.196,194.000 275.732 C 194.000 265.954,186.209 265.895,165.579 275.517 M207.856 269.516 C 202.166 272.607,202.444 282.041,208.297 284.472 C 210.059 285.203,217.575 286.306,225.000 286.923 C 232.425 287.539,240.478 288.259,242.896 288.523 C 247.118 288.983,250.000 287.880,250.000 285.805 C 250.000 284.205,214.932 267.934,211.713 268.040 C 211.046 268.062,209.310 268.726,207.856 269.516 " stroke="none" fill="#000000" fill-rule="evenodd"></path></g></svg>